<?xml version="1.0"?>
<!DOCTYPE svg PUBLIC "-//W3C//DTD SVG 1.1//EN" "http://www.w3.org/Graphics/SVG/1.1/DTD/svg11.dtd">
<svg width="229.428095107mm" height="201.972747421mm" viewBox="0 0 229.428095107 201.972747421" xmlns="http://www.w3.org/2000/svg" version="1.1">
<g id="Sketch" transform="translate(114.714048,121.131643) scale(1,-1)">
<path id="Sketch_w0000" d="M -111.125006541 -35.2905389809 L -25.0 113.882348151 A 10.0 10.0 0 0 0 -16.3397459622 118.882348151 L 16.3397459622 118.882348151 A 10.0 10.0 0 0 0 25.0 113.882348151 L 111.125006541 -35.2905389809 A 10.0 10.0 0 0 0 111.125006541 -45.2905389809 L 94.7852605792 -73.5918091701 A 10.0 10.0 0 0 0 86.1250065414 -78.5918091701 L -86.1250065414 -78.5918091701 A 10.0 10.0 0 0 0 -94.7852605792 -73.5918091701 L -111.125006541 -45.2905389809 A 10.0 10.0 0 0 0 -111.125006541 -35.2905389809 " stroke="#000000" stroke-width="0.35 px" style="stroke-width:0.35;stroke-miterlimit:4;stroke-dasharray:none;fill:none;fill-rule: evenodd "/>
<title>Sketch</title>
</g>
<g id="Array" transform="translate(114.714048,121.131643) scale(1,-1)">
<path id="Array_w0000" d="M -28.0 62.5 L -25.0 62.5 L -25.0 37.5 L -28.0 37.5 L -28.0 62.5 " stroke="#191919" stroke-width="0.35 px" style="stroke-width:0.35;stroke-miterlimit:4;stroke-dasharray:none;fill:none;fill-rule: evenodd "/>
<path id="Array_w0001" d="M 25.0 62.5 L 28.0 62.5 L 28.0 37.5 L 25.0 37.5 L 25.0 62.5 " stroke="#191919" stroke-width="0.35 px" style="stroke-width:0.35;stroke-miterlimit:4;stroke-dasharray:none;fill:none;fill-rule: evenodd "/>
<path id="Array_w0002" d="M -40.1265877365 -55.498711306 L -41.6265877365 -52.9006350946 L -19.9759526419 -40.4006350946 L -18.4759526419 -42.998711306 L -40.1265877365 -55.498711306 " stroke="#191919" stroke-width="0.35 px" style="stroke-width:0.35;stroke-miterlimit:4;stroke-dasharray:none;fill:none;fill-rule: evenodd "/>
<path id="Array_w0003" d="M -66.6265877365 -9.59936490539 L -68.1265877365 -7.00128869404 L -46.4759526419 5.49871130596 L -44.9759526419 2.90063509461 L -66.6265877365 -9.59936490539 " stroke="#191919" stroke-width="0.35 px" style="stroke-width:0.35;stroke-miterlimit:4;stroke-dasharray:none;fill:none;fill-rule: evenodd "/>
<path id="Array_w0004" d="M 68.1265877365 -7.00128869404 L 66.6265877365 -9.59936490539 L 44.9759526419 2.90063509461 L 46.4759526419 5.49871130596 L 68.1265877365 -7.00128869404 " stroke="#191919" stroke-width="0.35 px" style="stroke-width:0.35;stroke-miterlimit:4;stroke-dasharray:none;fill:none;fill-rule: evenodd "/>
<path id="Array_w0005" d="M 41.6265877365 -52.9006350946 L 40.1265877365 -55.498711306 L 18.4759526419 -42.998711306 L 19.9759526419 -40.4006350946 L 41.6265877365 -52.9006350946 " stroke="#191919" stroke-width="0.35 px" style="stroke-width:0.35;stroke-miterlimit:4;stroke-dasharray:none;fill:none;fill-rule: evenodd "/>
<title>Array</title>
</g>
</svg>